inDegrees=yes
name=ik_lifting_orientations
DataType=double
version=3
OpenSimVersion=4.5-2024-01-10-34fd6af
endheader
time	pelvis_tilt	pelvis_list	pelvis_rotation	pelvis_tx	pelvis_ty	pelvis_tz	hip_flexion_r	hip_adduction_r	hip_rotation_r	knee_angle_r	knee_angle_r_beta	ankle_angle_r	subtalar_angle_r	mtp_angle_r	hip_flexion_l	hip_adduction_l	hip_rotation_l	knee_angle_l	knee_angle_l_beta	ankle_angle_l	subtalar_angle_l	mtp_angle_l	lumbar_extension	lumbar_bending	lumbar_rotation	arm_flex_r	arm_add_r	arm_rot_r	elbow_flex_r	pro_sup_r	wrist_flex_r	wrist_dev_r	arm_flex_l	arm_add_l	arm_rot_l	elbow_flex_l	pro_sup_l	wrist_flex_l	wrist_dev_l
0.86	-0.05168802513608114	-36.08641153301874	-86.79666657465569	0	0.9399999998679526	0	46.01667461117678	-9.770053855023171	0	60.50359760743517	1.055986987551507	-4.814937263266211	0	0	46.01667461117678	-9.770053855023171	0	60.50359760743517	1.055986987551507	-4.814937263266211	0	0	-63.12433001274605	-18.59399104171204	24.80557433835495	72.57224052345323	-25.14271033301461	3.966495152259992	133.1418492179336	0.7643525087528882	0	0	0	-12.38948638863294	0	89.31941044696451	0.7643525087528882	0	0
0.87	0.0381182792477183	-36.39958756019126	-86.70950067627922	0	0.9399999998679526	0	46.01136215679383	-9.772937366389145	0	60.50099477043798	1.055941559476014	-4.817711675750207	0	0	46.01136215679383	-9.772937366389145	0	60.50099477043798	1.055941559476014	-4.817711675750207	0	0	-63.4184080433557	-18.5328783522353	24.58266157375415	74.36324416932351	-23.89992916263136	5.415302350096482	133.7974363829461	0.761294716866238	0	0	0	-12.39777481408367	0	89.32213245750538	0.761294716866238	0	0
0.88	0.06754853569851309	-36.64977122192884	-86.70503817592041	0	0.9399999998679526	0	46.00639317141145	-9.775612959865693	0	60.49855892825109	1.055899046009793	-4.820279323747028	0	0	46.00639317141145	-9.775612959865693	0	60.49855892825109	1.055899046009793	-4.820279323747028	0	0	-63.62640760210096	-18.49676310128724	24.42186377694228	75.89256723709683	-22.71974940986739	6.626751722742919	134.2075060273346	0.7584306389877581	0	0	0	-12.40554553193471	0	89.32468202632214	0.7584306389877581	0	0
0.89	0.1205827928776588	-36.84487528324924	-86.66993029191811	0	0.9399999998679526	0	46.00041159309114	-9.778800450437179	0	60.49562505916363	1.055847840334395	-4.823327120381661	0	0	46.00041159309114	-9.778800450437179	0	60.49562505916363	1.055847840334395	-4.823327120381661	0	0	-63.89735065448435	-18.46785822808563	24.25542945275949	77.65363109172735	-21.32066648088812	7.932746087414968	133.8629615526032	0.7549771934553958	0	0	0	-12.41492557263098	0	89.32775624367322	0.7549771934553958	0	0
0.9	0.1603843835456653	-37.03366626950457	-86.6690004465261	0	0.9399999998679526	0	45.99987963169057	-9.779212427290684	0	60.49541877634214	1.055844240019969	-4.823756515439761	0	0	45.99987963169057	-9.779212427290684	0	60.49541877634214	1.055844240019969	-4.823756515439761	0	0	-63.39557147120532	-19.34670900192951	26.00586459282514	77.696464306094	-21.72933058961543	7.134052424133776	134.3557143361661	0.7546981331149734	0	0	0	-12.4156284119182	0	89.3280046583794	0.7546981331149734	0	0
0.91	0.2725092885150254	-37.09030660601669	-86.55239304194336	0	0.9399999998679526	0	45.99958498550023	-9.779439704967682	0	60.49530424491891	1.055842241069537	-4.823993157080431	0	0	45.99958498550023	-9.779439704967682	0	60.49530424491891	1.055842241069537	-4.823993157080431	0	0	-63.00666534541393	-19.94750524378231	27.11782864785966	78.68100443630438	-21.43473456545488	6.987786607259403	133.9203992353174	0.7545434074526166	0	0	0	-12.4160184264717	0	89.32814239250777	0.7545434074526166	0	0
0.92	0.2542005681491644	-37.16375564613046	-86.63432484515872	0	0.9399999998679526	0	45.99508219110206	-9.781779066646587	0	60.4930811352051	1.055803440485398	-4.826211784759322	0	0	45.99508219110206	-9.781779066646587	0	60.4930811352051	1.055803440485398	-4.826211784759322	0	0	-62.65726360121815	-20.50894174859704	28.25415814558352	79.95037287583808	-20.98547713928243	6.948806008062864	133.5233678311067	0.751931882826973	0	0	0	-12.42313415254407	0	89.33046714222955	0.751931882826973	0	0
0.93	0.2075188702424513	-37.228823267453	-86.71027488328956	0	0.9399999998679526	0	45.99464421721386	-9.782115094056593	0	60.49291111308572	1.055800473039614	-4.826560924361289	0	0	45.99464421721386	-9.782115094056593	0	60.49291111308572	1.055800473039614	-4.826560924361289	0	0	-62.1060039440806	-21.23398003440856	29.87093431278569	81.13945376746915	-20.81136191599838	6.593443989838097	132.7228769632832	0.7517017491151144	0	0	0	-12.42371442895382	0	89.33067200332677	0.7517017491151144	0	0
0.9399999999999999	0.1769557097164217	-37.19457248265469	-86.812194826777	0	0.9399999998679526	0	45.99438699328066	-9.78231119511865	0	60.49281083694258	1.055798722890755	-4.826764370777298	0	0	45.99438699328066	-9.78231119511865	0	60.49281083694258	1.055798722890755	-4.826764370777298	0	0	-61.78367420346225	-21.65015570493821	30.668466683557	82.68609406026805	-19.96260132518286	6.805404752988647	131.0678569346485	0.7515663577223296	0	0	0	-12.42405629879403	0	89.33079252644511	0.7515663577223296	0	0
0.95	0.192883630594872	-37.22840839156442	-86.78473149397271	0	0.9399999998679526	0	45.99387757986663	-9.782700300759847	0	60.49261263393014	1.0557952635956	-4.827168141136483	0	0	45.99387757986663	-9.782700300759847	0	60.49261263393014	1.0557952635956	-4.827168141136483	0	0	-61.97160297728836	-21.6002145140059	30.55943213732747	84.57435338229617	-18.52160778553936	7.634317846609249	129.4134009307303	0.7512984084674571	0	0	0	-12.42473248407495	0	89.3310310503105	0.7512984084674571	0	0
